<?xml version="1.0" encoding="UTF-8"?>
<svg id="Layer_1" xmlns="http://www.w3.org/2000/svg" version="1.1" viewBox="0 0 250 400">
  <!-- Generator: Adobe Illustrator 30.0.0, SVG Export Plug-In . SVG Version: 2.1.1 Build 123)  -->
  <defs>
    <style>
      .st0 {
        fill: #fff;
      }

      .st1 {
        fill: none;
        stroke: #fff;
        stroke-linecap: round;
        stroke-linejoin: round;
        stroke-width: 22.8px;
      }
    </style>
  </defs>
  <g id="Symbol_1_0_Layer0_0_MEMBER_0_MEMBER_0_FILL">
    <path class="st0" d="M174.57,104.92c-3.95-8.21-10.26-13.83-18.92-16.87-8.66-3.04-17.1-2.58-25.3,1.37-8.36,3.95-14.06,10.26-17.1,18.92-3.04,8.66-2.58,17.1,1.37,25.3,3.95,8.36,10.26,14.06,18.92,17.1,8.66,3.04,17.1,2.58,25.3-1.37,8.36-3.95,14.06-10.26,17.1-18.92s2.58-17.17-1.37-25.53Z"/>
  </g>
  <path id="Symbol_1_0_Layer0_0_MEMBER_0_MEMBER_1_1_STROKES" class="st1" d="M149.72,142.31l-37.62,90.28"/>
  <path id="Symbol_1_0_Layer0_0_MEMBER_0_MEMBER_2_1_STROKES" class="st1" d="M29.35,285.25l44.91-24.39,39.21-31.69"/>
  <path id="Symbol_1_0_Layer0_0_MEMBER_0_MEMBER_3_1_STROKES" class="st1" d="M94.32,288.21l46.96-15.27-27.81-43.77"/>
  <path id="Symbol_1_0_Layer0_0_MEMBER_0_MEMBER_4_1_STROKES" class="st1" d="M143.79,158.95l-43.31,4.33-32.6,25.53"/>
  <path id="Symbol_1_0_Layer0_0_MEMBER_0_MEMBER_5_1_STROKES" class="st1" d="M143.79,162.14l39.21-8.21,29.41-32.14"/>
</svg>