<?xml version="1.0" encoding="UTF-8"?>
<svg id="Layer_1" xmlns="http://www.w3.org/2000/svg" version="1.1" viewBox="0 0 250 400">
  <!-- Generator: Adobe Illustrator 30.0.0, SVG Export Plug-In . SVG Version: 2.1.1 Build 123)  -->
  <defs>
    <style>
      .st0 {
        fill: #fff;
      }

      .st1 {
        fill: none;
        stroke: #fff;
        stroke-linecap: round;
        stroke-linejoin: round;
        stroke-width: 22.8px;
      }
    </style>
  </defs>
  <g id="Symbol_2_0_Layer0_0_MEMBER_0_FILL">
    <path class="st0" d="M135.38,67.79c-6.38-6.54-14.21-9.8-23.48-9.8-9.27,0-17.1,3.27-23.48,9.8-6.54,6.54-9.8,14.36-9.8,23.48s3.27,17.1,9.8,23.48c6.38,6.54,14.21,9.8,23.48,9.8,9.27,0,17.1-3.27,23.48-9.8,6.54-6.38,9.8-14.21,9.8-23.48s-3.27-16.95-9.8-23.48Z"/>
  </g>
  <path id="Symbol_2_0_Layer0_0_MEMBER_1_1_STROKES" class="st1" d="M113.04,118.4l-.68,97.57"/>
  <path id="Symbol_2_0_Layer0_0_MEMBER_2_1_STROKES" class="st1" d="M96.17,303.51l16.41-90.96"/>
  <path id="Symbol_2_0_Layer0_0_MEMBER_3_1_STROKES" class="st1" d="M126.95,303.51l-14.36-90.96"/>
  <path id="Symbol_2_0_Layer0_0_MEMBER_4_1_STROKES" class="st1" d="M107.11,134.58l-33.51,77.97"/>
  <path id="Symbol_2_0_Layer0_0_MEMBER_5_1_STROKES" class="st1" d="M116.91,134.58l41.26.68,45.59-15.27"/>
  <g id="Symbol_2_0_Layer0_0_MEMBER_6_FILL">
    <path class="st0" d="M229.31,96.13c0-3.21-1.14-6-3.41-8.38-2.27-2.28-5.07-3.41-8.38-3.41s-6.15,1.14-8.53,3.41c-2.28,2.28-3.41,5.07-3.41,8.38s1.14,6.15,3.41,8.53c2.38,2.28,5.22,3.41,8.53,3.41s6.1-1.14,8.38-3.41c2.28-2.38,3.41-5.22,3.41-8.53Z"/>
  </g>
</svg>